# xmcd
#
# Track frame offsets: 
#        150
#        23455
#        48122
#        68922
#        91790
#        115560
#        138665
#        157647
#        178357
#        201522
#
# Disc length: 3084 seconds
#
# Revision: 0
# Processed by: cddbd v1.5.2PL0 Copyright (c) Steve Scherf et al.
# Submitted via: ExactAudioCopy v0.99pb5
#
DISCID=7a0c0a0a
DTITLE=動力火車 - 百萬全紀錄
DYEAR=2000
DGENRE=Rock
TTITLE0=01不要再說愛我
TTITLE1=02第二次分手
TTITLE2=03除了愛你還能愛誰
TTITLE3=04背叛情歌
TTITLE4=05不甘心放手
TTITLE5=06無情的情書
TTITLE6=07我不知道
TTITLE7=08那就這樣吧
TTITLE8=09再見!我的愛人
TTITLE9=10第一滴淚\
EXTD=
EXTT0=
EXTT1=
EXTT2=
EXTT3=
EXTT4=
EXTT5=
EXTT6=
EXTT7=
EXTT8=
EXTT9=
PLAYORDER=
